<svg xmlns="http://www.w3.org/2000/svg" viewBox="0 0 229.61 229.61"><defs><style>.cls-1{fill:#ebc882;}.cls-2{fill:#fff;}.cls-3{fill:#f5c8a5;}.cls-4{fill:#232d3c;}.cls-5{fill:#e69339;}.cls-6{fill:#64b9be;}.cls-7{fill:#e17355;}.cls-8{fill:#fadcc8;}</style></defs><g id="de_BG"><circle class="cls-1" cx="114.8" cy="114.8" r="113.39"/><path class="cls-2" d="M114.8,223A108.17,108.17,0,1,1,223,114.8,108.29,108.29,0,0,1,114.8,223Zm0-214.46A106.29,106.29,0,1,0,221.09,114.8,106.42,106.42,0,0,0,114.8,8.51Z"/></g><g id="face"><path class="cls-3" d="M93.21,190.1a1.77,1.77,0,0,1-1.74-1.79v-.52a19.13,19.13,0,0,1,2-7.38,62.91,62.91,0,0,0,2.73-7.19C98,167,97,164.17,97.3,157.94a4,4,0,0,1,.16-1c.8-1.66,1.59-3,3.45-3.8h0l0,0c6,5.45,4,16.42,12.16,19.34a.76.76,0,0,0,1.1-.46l.48-.87c1.67,3,3.75,6.86,7.62,7.27a.75.75,0,0,0,.85-.43l.21-.35a3.89,3.89,0,0,1,4.59-1.36,5.46,5.46,0,0,1,3,4,6.73,6.73,0,0,1-2.21,6.26c-3.73,2.9-6.41,3.14-10.88,3.14H98.68a3.33,3.33,0,0,0-1.66.42Z"/><path class="cls-4" d="M98.66,167.8a2.79,2.79,0,0,0-2.88-.67,3.51,3.51,0,0,0-1.48,1,.41.41,0,0,1-.45.16.45.45,0,0,1-.21-.1,3.17,3.17,0,0,0-1-.7,4,4,0,0,0-3.28.53,3.92,3.92,0,0,0-1.35,3,4.7,4.7,0,0,0,1.33,3.8,3.44,3.44,0,0,0,2.49.68c1.44.05,2.05-.92,2.45-2.1a5.89,5.89,0,0,0,.28-2.6c0-.24-.14-.45,0-.69.54-.78,1.13-2,2.39-1.65.28.06.89.29.92.67s-.23.7-.31,1.06a5.2,5.2,0,0,0-.14,1.36,4.29,4.29,0,0,0,1.72,3.56,5.25,5.25,0,0,0,2.65.37c2.4-.4,2.88-3.81,2.3-5.69-.39-1.27-1.24-2.49-2.77-2.43l-.78,0a3,3,0,0,0-1.09.2C99.24,167.75,99,168.08,98.66,167.8Z"/><path class="cls-4" d="M144.81,150.11c4.67,8.16.17,18.42-3.55,25.17l-.4.71c-.13.23-.34.39-.34.7a6.33,6.33,0,0,1-.14,1.31,8.86,8.86,0,0,1-.9,2.34c-.81,1.51-1.85,2.84-2.78,4.26-2.25,3.41-2.86,5.6-3.81,9.5a23.36,23.36,0,0,1-1.44,4.3c-.44,1-.86,1.95-1.28,2.92-.86,2-1.71,3.91-2.7,5.8a10,10,0,0,1-3.33,4.27,12.3,12.3,0,0,1-2.2.91,6,6,0,0,0-1.69,1.31c-2.48,2.23-5.12,1.21-7.76,1.48-1.28.13-2.46.7-3.77.73a5.56,5.56,0,0,1-2.77-.67c-.18-.1-.75-.58-1-.48l-.47.14a5.26,5.26,0,0,1-1,.14,8.16,8.16,0,0,1-5.29-1.83c-3.14-2.18-3.55-4.93-3.89-8.3-.08-.85-.31-1.66-.38-2.51a19.58,19.58,0,0,1,0-3.25,44.18,44.18,0,0,1,1.27-6.48,3.57,3.57,0,0,1,.91-1.74c1-1.06,2.1-1.09,3.41-1.09h3.72c5.33,0,10.65.08,16,0a14.62,14.62,0,0,0,9.17-2.88,6.07,6.07,0,0,0,2.5-4,6.47,6.47,0,0,0,.08-2.28,5.28,5.28,0,0,0-3.4-4.39,3.61,3.61,0,0,0-3.08.45,5.35,5.35,0,0,0-1.39,1.5.76.76,0,0,1-.65.34,6.22,6.22,0,0,1-3.72-1.62,14.59,14.59,0,0,1-3-3.88l-.6-1.06-.29-.52c0-.06-.07-.27-.13-.15l-.19.33a5.79,5.79,0,0,1-.36.64.8.8,0,0,1-.66.36,1.06,1.06,0,0,1-.43-.08,8.73,8.73,0,0,1-4.07-3c-2.37-3-2.93-6.54-4.15-9.92a18.5,18.5,0,0,0-2.46-4.88,12.4,12.4,0,0,0-.88-1c-.16-.17-.32-.33-.49-.49s-.2,0-.3,0a4.52,4.52,0,0,0-1,.62,10,10,0,0,0-3,4.77c-.37,1-.68,2-1,3.08a2.42,2.42,0,0,1-.28.82.87.87,0,0,1-1.37.08,13,13,0,0,1-2.83-6.87,9.14,9.14,0,0,1,3.18-7.69c.24-.21.5-.41.76-.6.1-.08.17-.2.33-.19l.18,0,.37,0,.72.07,1.44.12,2.88.21q2.88.21,5.77.34,5.76.27,11.53.29,11.55,0,23-1a1.23,1.23,0,0,0,.82-.25l.65-.57,1.3-1.16c.85-.77,1.7-1.55,2.53-2.34q2.49-2.34,4.87-4.81,4.7-4.86,8.89-10.15a132.2,132.2,0,0,0,7.77-10.86q.9-1.4,1.77-2.82l.21-.36s.09-.33.19-.29l.1.06a1.08,1.08,0,0,1,.21.22,4.83,4.83,0,0,1,.76,2c1.16,5.58-.61,11.63-3.37,16.31a31.16,31.16,0,0,1-8.92,9.58,43.24,43.24,0,0,1-7.18,4.18q-2.16,1-4.38,1.82c-.8.29-1.6.57-2.41.83A.88.88,0,0,0,144.81,150.11Z"/><path class="cls-5" d="M141.47,146.71a95.58,95.58,0,0,0-45.92.58,257.8,257.8,0,0,0,46.57.05,139.13,139.13,0,0,0,28.4-33.56A86.68,86.68,0,0,0,141.47,146.71Z"/><path class="cls-2" d="M88.4,171.47a5.1,5.1,0,0,1,.07-.87,5.2,5.2,0,0,1,.23-.86,4.73,4.73,0,0,1,.39-.78,2.88,2.88,0,0,1,.3-.39,2.34,2.34,0,0,1,.56-.48,2.43,2.43,0,0,1,.46-.22,1.79,1.79,0,0,1,1.12,0,2.86,2.86,0,0,1,.47.22,2.79,2.79,0,0,1,.55.48,2.88,2.88,0,0,1,.3.39,3.56,3.56,0,0,1,.39.78c.05.14.1.28.14.43a3.29,3.29,0,0,1,.09.43,5.1,5.1,0,0,1,.07.87,4.91,4.91,0,0,1-.07.86,5.06,5.06,0,0,1-.23.87,3.79,3.79,0,0,1-.39.78,2.88,2.88,0,0,1-.3.39,2.79,2.79,0,0,1-.55.48,2.18,2.18,0,0,1-.47.21,1.79,1.79,0,0,1-1.12,0,1.92,1.92,0,0,1-.46-.21,2.59,2.59,0,0,1-.56-.48,2.88,2.88,0,0,1-.3-.39,5.16,5.16,0,0,1-.39-.78c0-.14-.09-.28-.13-.43s-.07-.29-.1-.44A4.91,4.91,0,0,1,88.4,171.47Z"/><path class="cls-2" d="M97.85,171.47a5.1,5.1,0,0,1,.07-.87,5.2,5.2,0,0,1,.23-.86,4.06,4.06,0,0,1,.39-.78,2.88,2.88,0,0,1,.3-.39,2.34,2.34,0,0,1,.56-.48,2.43,2.43,0,0,1,.46-.22,1.79,1.79,0,0,1,1.12,0,2.43,2.43,0,0,1,.46.22,2.59,2.59,0,0,1,.56.48,2.88,2.88,0,0,1,.3.39,3.56,3.56,0,0,1,.39.78c0,.14.1.28.14.43s.07.29.09.43a5.1,5.1,0,0,1,.07.87,4.91,4.91,0,0,1-.07.86,5.06,5.06,0,0,1-.23.87,3.79,3.79,0,0,1-.39.78,2.88,2.88,0,0,1-.3.39,2.59,2.59,0,0,1-.56.48,1.92,1.92,0,0,1-.46.21,1.79,1.79,0,0,1-1.12,0,1.92,1.92,0,0,1-.46-.21,2.59,2.59,0,0,1-.56-.48,2.88,2.88,0,0,1-.3-.39,4.37,4.37,0,0,1-.39-.78,3.06,3.06,0,0,1-.13-.43c0-.14-.07-.29-.1-.44A4.91,4.91,0,0,1,97.85,171.47Z"/></g><g id="design"><path class="cls-2" d="M73.21,82l.92-1.17,10-11.26h7.82L79.28,83.26,92,100.13H84.31l-9.43-13-1.5,1.5v11.55H67.27V69.54h6.11V80.43Z"/><path class="cls-2" d="M113.87,82v18.16h-5.28l-.42-2.91a7.13,7.13,0,0,1-2.68,2.77,7.81,7.81,0,0,1-4,1,5.91,5.91,0,0,1-4.16-1.54,5.2,5.2,0,0,1-1.7-3.91V82h5.82V93.4c.08,1.77.9,2.66,2.45,2.66a3.45,3.45,0,0,0,3.05-1.87,9.05,9.05,0,0,0,1.15-4.82V82Z"/><path class="cls-2" d="M136.79,82.63a5.16,5.16,0,0,1,1.77,3.91v13.59h-5.82V88.7c-.09-1.77-1-2.66-2.66-2.66a3.67,3.67,0,0,0-3.2,1.87,8.72,8.72,0,0,0-1.21,4.82v7.4h-5.82V82h5.28l.42,2.91a7.12,7.12,0,0,1,2.76-2.79,8.42,8.42,0,0,1,4.18-1A6.25,6.25,0,0,1,136.79,82.63Z"/><path class="cls-2" d="M145.39,73.43a3.3,3.3,0,0,1,2.23-.86,3.17,3.17,0,0,1,2.16.86,2.68,2.68,0,0,1,.95,2.1,2.61,2.61,0,0,1-.95,2.07,3.2,3.2,0,0,1-2.16.84,3.33,3.33,0,0,1-2.23-.84,2.59,2.59,0,0,1-1-2.07A2.67,2.67,0,0,1,145.39,73.43Zm5,8.54v18.16h-5.82V82Z"/><path class="cls-2" d="M95.3,111.16a5.38,5.38,0,0,1,1.68,4v13.63H91.21V117.52a5.15,5.15,0,0,0-.46-2.06,1.68,1.68,0,0,0-1.46-.77,3.54,3.54,0,0,0-3.18,2A9.08,9.08,0,0,0,85,121.3v7.44H79.15V117.52a4.49,4.49,0,0,0-.5-2.06,1.81,1.81,0,0,0-1.53-.77,3.42,3.42,0,0,0-3.08,2,9,9,0,0,0-1.12,4.55v7.52H67.1V110.58h5.28l.41,2.86a7.14,7.14,0,0,1,6.57-3.78,6.84,6.84,0,0,1,3.64.89,4.63,4.63,0,0,1,2,2.64,9.25,9.25,0,0,1,2.77-2.57,6.3,6.3,0,0,1,3.3-1A6,6,0,0,1,95.3,111.16Z"/><path class="cls-2" d="M122.51,110.58v18.16h-5.82V126.5a8.19,8.19,0,0,1-6.07,2.74,9.07,9.07,0,0,1-6.55-2.41c-1.68-1.61-2.51-4-2.51-7.15a10.84,10.84,0,0,1,1.22-5.26,9.09,9.09,0,0,1,3.27-3.51,8.2,8.2,0,0,1,4.36-1.25,8.32,8.32,0,0,1,3.82.73,7.64,7.64,0,0,1,2.5,2.06l.37-1.87Zm-5.82,11.18v-4.45a4.28,4.28,0,0,0-1.73-2.12,5.2,5.2,0,0,0-2.89-.79,4.35,4.35,0,0,0-3.26,1.41,5,5,0,0,0-1.35,3.58,5.26,5.26,0,0,0,.66,2.6,5.08,5.08,0,0,0,1.77,1.85,4.55,4.55,0,0,0,2.39.66A4.61,4.61,0,0,0,116.69,121.76Z"/><path class="cls-2" d="M130.2,128.32a8.66,8.66,0,0,1-3.25-2.2l2.41-3.2a6.93,6.93,0,0,0,4.53,2.25,3.88,3.88,0,0,0,1.81-.36,1.13,1.13,0,0,0,.69-1.06,1.39,1.39,0,0,0-.79-1.27,8.85,8.85,0,0,0-1.77-.72c-.65-.2-1.09-.32-1.31-.38a7.08,7.08,0,0,1-3.53-2.22,5.28,5.28,0,0,1-1.16-3.39,5.81,5.81,0,0,1,3.16-5.13,8.2,8.2,0,0,1,4-.9,14.06,14.06,0,0,1,3.82.46,10.25,10.25,0,0,1,3,1.5l-2.21,3.41a7.61,7.61,0,0,0-1.85-1.1,4.59,4.59,0,0,0-1.85-.44,3,3,0,0,0-1.62.41,1.21,1.21,0,0,0-.62,1,1.32,1.32,0,0,0,.73,1.31,11.19,11.19,0,0,0,2.39.89l.52.17.56.17q4.27,1.41,4.28,5.15a6.1,6.1,0,0,1-.87,3.2,6.4,6.4,0,0,1-2.64,2.35,9.44,9.44,0,0,1-4.31.89A11,11,0,0,1,130.2,128.32Z"/><path class="cls-2" d="M165.36,110.58v18.16h-5.28l-.41-2.91a7.13,7.13,0,0,1-2.69,2.76,7.81,7.81,0,0,1-4,1,5.88,5.88,0,0,1-4.15-1.53,5.24,5.24,0,0,1-1.71-3.91V110.58h5.82V122c.08,1.77.9,2.66,2.45,2.66a3.47,3.47,0,0,0,3.06-1.87,9.19,9.19,0,0,0,1.14-4.83v-7.39Z"/><polygon class="cls-6" points="180.42 56.36 172 55.11 166.19 61.35 164.77 52.95 157.05 49.35 164.6 45.41 165.63 36.95 171.72 42.92 180.08 41.28 176.29 48.91 180.42 56.36"/><polygon class="cls-7" points="75.38 49.15 53.62 36.59 53.62 61.72 75.38 49.15"/><path class="cls-4" d="M169.36,84.68h18.79V78.4h0l14,12.23-14,12.23h0V96.58H169.36Z"/><polygon class="cls-2" points="45.22 102.86 35.72 115.73 27.13 93.4 25.36 95.8 35.02 120.91 44.53 108.02 52.45 128.45 52.46 128.44 54.22 126.06 45.22 102.86"/><path class="cls-8" d="M100.79,37a13.44,13.44,0,1,1,13.43,13.43A13.43,13.43,0,0,1,100.79,37"/><path class="cls-2" d="M138.15,30.06h0c-.59-2-4.3-2.37-11.66-1.14l-.59.09.32.51c.23.37.44.76.64,1.16l.13.26.29-.05c6.79-1.08,8.54-.39,8.83-.26-.16.31-1,1.45-5.14,3.53-.68.34-1.46.7-2.44,1.14a108.91,108.91,0,0,1-12.85,4.64,103.6,103.6,0,0,1-14.41,3.28c-.53.08-1.06.15-1.56.2-4.48.51-5.84,0-6.2-.14.22-.38,1.34-1.74,6.48-4.14l.27-.12,0-.29c0-.42-.08-.85-.1-1.32l0-.6-.54.24c-6,2.74-8.66,5-8.1,6.85.25.85,1,1.83,4.77,1.83a33.31,33.31,0,0,0,3.71-.24c.68-.08,1.4-.18,2.14-.29a108.37,108.37,0,0,0,14.19-3.27,112.39,112.39,0,0,0,12.64-4.52c1.13-.5,2.11-.95,3-1.39C138.16,32.89,138.47,31.12,138.15,30.06Z"/><polygon class="cls-6" points="60.08 180.71 54.58 174.21 46.1 175.06 50.58 167.81 47.16 160.01 55.43 162.04 61.79 156.37 62.42 164.87 69.78 169.16 61.89 172.39 60.08 180.71"/><polygon class="cls-7" points="182.13 177.67 179.59 152.67 159.21 167.36 182.13 177.67"/></g></svg>