<svg xmlns="http://www.w3.org/2000/svg" viewBox="0 0 207.21 229.61"><defs><style>.cls-1{fill:#e69339;}.cls-2{fill:#f5c8a5;}.cls-3{fill:#232d3c;}.cls-4{fill:#fff;}.cls-5{fill:#ebc882;}.cls-6{fill:#fadcc8;}.cls-7{fill:#e69137;}.cls-8{fill:#d65e44;}.cls-9{fill:#59acb0;}</style></defs><g id="face"><path class="cls-1" d="M139.11,135.87a127.94,127.94,0,0,0-61.44.77,344.8,344.8,0,0,0,62.3.08,186,186,0,0,0,38-44.91A116.09,116.09,0,0,0,139.11,135.87Z"/><path class="cls-2" d="M74.54,193.92a2.36,2.36,0,0,1-2.32-2.39v-.7c0-3.61,1.29-6.68,2.63-9.88a83.73,83.73,0,0,0,3.66-9.61c2.36-8.34,1.13-12.11,1.5-20.44a5.05,5.05,0,0,1,.22-1.28c1.07-2.23,2.12-4,4.6-5.09l0,0,.06.06c8,7.29,5.3,22,16.27,25.87a1,1,0,0,0,1.47-.61c.21-.39.43-.78.65-1.17,2.23,4.06,5,9.18,10.18,9.73a1,1,0,0,0,1.15-.57l.28-.48c1.16-2,4.12-2.64,6.14-1.82,2.22.9,3.47,3.21,4,5.35a9,9,0,0,1-3,8.39c-5,3.86-8.58,4.19-14.56,4.19H81.86a4.58,4.58,0,0,0-2.22.56Z"/><path class="cls-3" d="M81.83,164.08a3.7,3.7,0,0,0-3.84-.89,4.87,4.87,0,0,0-2,1.38.56.56,0,0,1-.59.22.59.59,0,0,1-.28-.15,4.34,4.34,0,0,0-1.27-.93,5.36,5.36,0,0,0-4.39.71,5.21,5.21,0,0,0-1.81,4,6.34,6.34,0,0,0,1.77,5.1c1,.92,2.13.86,3.34.9,1.92.07,2.74-1.24,3.28-2.81a8.21,8.21,0,0,0,.38-3.48c0-.31-.19-.6,0-.93.72-1,1.51-2.61,3.2-2.2.37.08,1.19.4,1.23.9s-.31.94-.42,1.42a7.46,7.46,0,0,0-.19,1.82,5.78,5.78,0,0,0,2.31,4.76,6.94,6.94,0,0,0,3.54.49c3.21-.53,3.86-5.1,3.08-7.61-.53-1.7-1.65-3.33-3.7-3.25l-1,0a3.91,3.91,0,0,0-1.47.27C82.62,164,82.33,164.47,81.83,164.08Z"/><path class="cls-3" d="M143.58,140.42c6.24,10.92.22,24.65-4.75,33.67-.17.32-.35.64-.53,1s-.46.52-.46.93a9.39,9.39,0,0,1-.19,1.76,11.46,11.46,0,0,1-1.2,3.12c-1.08,2-2.48,3.8-3.72,5.7-3,4.57-3.83,7.49-5.09,12.72A32.69,32.69,0,0,1,125.7,205c-.58,1.29-1.14,2.6-1.71,3.9-1.14,2.62-2.29,5.23-3.61,7.76-1.15,2.21-2.21,4.26-4.46,5.71a16.3,16.3,0,0,1-2.94,1.22,8.11,8.11,0,0,0-2.26,1.75c-3.32,3-6.85,1.63-10.38,2-1.72.18-3.28.94-5,1a7.35,7.35,0,0,1-3.7-.9c-.24-.13-1-.77-1.39-.64a6.32,6.32,0,0,1-.62.18,6.57,6.57,0,0,1-1.32.19c-2.83.12-4.88-.92-7.08-2.45-4.2-2.92-4.75-6.58-5.2-11.1-.11-1.13-.42-2.22-.51-3.36a25.27,25.27,0,0,1,.07-4.35,59.29,59.29,0,0,1,1.69-8.67,4.88,4.88,0,0,1,1.22-2.32c1.35-1.42,2.82-1.46,4.56-1.46h5c7.13,0,14.25.11,21.38,0,4.63-.07,8.46-1,12.27-3.85a8.16,8.16,0,0,0,3.35-5.33,8.93,8.93,0,0,0,.1-3c-.34-2.42-2-5.16-4.55-5.87a4.87,4.87,0,0,0-4.13.59,7.21,7.21,0,0,0-1.84,2,1.1,1.1,0,0,1-.88.45c-1.73.07-3.77-1.14-5-2.16a19.25,19.25,0,0,1-4-5.2q-.42-.71-.81-1.41l-.38-.7c0-.08-.1-.37-.19-.2l-.24.43a9.25,9.25,0,0,1-.49.87,1.1,1.1,0,0,1-.88.48,1.43,1.43,0,0,1-.58-.11,11.72,11.72,0,0,1-5.45-4c-3.16-4-3.92-8.74-5.55-13.27a24.53,24.53,0,0,0-3.29-6.52,14.22,14.22,0,0,0-1.17-1.4L85,144.6c-.16-.14-.27,0-.4.05a6.55,6.55,0,0,0-1.31.82c-2.17,1.75-3.07,3.94-4,6.39-.5,1.35-.91,2.73-1.28,4.12a3.1,3.1,0,0,1-.36,1.1,1.19,1.19,0,0,1-1.85.11A17.49,17.49,0,0,1,72,148a12.2,12.2,0,0,1,4.25-10.28,12.93,12.93,0,0,1,1-.81c.14-.1.23-.27.45-.25l.24,0,.48.05,1,.08,1.93.16c1.28.11,2.57.2,3.85.29,2.57.18,5.15.33,7.72.46q7.71.36,15.42.38c10.31,0,20.56-.41,30.83-1.31a1.66,1.66,0,0,0,1.09-.33l.88-.77c.58-.51,1.16-1,1.73-1.54,1.14-1,2.28-2.08,3.4-3.13q3.33-3.15,6.5-6.44c4.19-4.34,8.15-8.85,11.9-13.58s7.16-9.51,10.39-14.53c.81-1.25,1.59-2.5,2.37-3.77.09-.16.19-.32.29-.48s.12-.45.25-.39l.14.08a1.58,1.58,0,0,1,.28.3,6.65,6.65,0,0,1,1,2.73c1.55,7.46-.82,15.54-4.52,21.81A41.69,41.69,0,0,1,163,129.55a57.65,57.65,0,0,1-9.61,5.6q-2.88,1.35-5.86,2.44c-1.07.39-2.14.76-3.22,1.1A1.18,1.18,0,0,0,143.58,140.42Z"/><path class="cls-4" d="M68.11,169a6.76,6.76,0,0,1,.41-2.31,5.7,5.7,0,0,1,.52-1.05,4.81,4.81,0,0,1,.4-.52,3.69,3.69,0,0,1,.74-.63,2.49,2.49,0,0,1,1.37-.42,2.67,2.67,0,0,1,.75.12,2.37,2.37,0,0,1,.62.3,3.49,3.49,0,0,1,.75.63,6.41,6.41,0,0,1,.39.52,5.17,5.17,0,0,1,.53,1.05q.1.28.18.57c0,.19.09.39.13.59a7.46,7.46,0,0,1,0,2.31,6.62,6.62,0,0,1-.31,1.16,4.85,4.85,0,0,1-.53,1,4.15,4.15,0,0,1-.39.52,3.27,3.27,0,0,1-.75.64,3.23,3.23,0,0,1-.62.3,2.67,2.67,0,0,1-.75.12,2.73,2.73,0,0,1-.75-.12,3.93,3.93,0,0,1-.62-.3A4.05,4.05,0,0,1,69,172.35a5.32,5.32,0,0,1-.52-1c-.07-.19-.13-.38-.19-.57s-.09-.39-.12-.59A6.41,6.41,0,0,1,68.11,169Z"/><path class="cls-4" d="M80.75,169a6.76,6.76,0,0,1,.41-2.31,5.7,5.7,0,0,1,.52-1.05,4.81,4.81,0,0,1,.4-.52,3.69,3.69,0,0,1,.74-.63,2.72,2.72,0,0,1,.62-.3,2.79,2.79,0,0,1,.75-.12,2.67,2.67,0,0,1,.75.12,2.37,2.37,0,0,1,.62.3,3.49,3.49,0,0,1,.75.63,6.54,6.54,0,0,1,.4.52,5.7,5.7,0,0,1,.52,1.05q.1.28.18.57c0,.19.09.39.13.59a6.72,6.72,0,0,1,0,2.31,6.62,6.62,0,0,1-.31,1.16,5.32,5.32,0,0,1-.52,1,4.21,4.21,0,0,1-.4.52,3.27,3.27,0,0,1-.75.64,3.23,3.23,0,0,1-.62.3,2.67,2.67,0,0,1-.75.12,2.79,2.79,0,0,1-.75-.12,3.93,3.93,0,0,1-.62-.3,4.05,4.05,0,0,1-1.14-1.16,5.32,5.32,0,0,1-.52-1q-.1-.28-.18-.57a4.16,4.16,0,0,1-.13-.59A6.41,6.41,0,0,1,80.75,169Z"/></g><g id="design"><polygon class="cls-5" points="30.93 88.05 18.56 104.83 7.37 75.74 5.07 78.86 17.65 111.57 30.04 94.78 40.35 121.39 40.36 121.38 42.65 118.28 30.93 88.05"/><path class="cls-6" d="M93.08,24.1a15,15,0,1,1,15,15,15,15,0,0,1-15-15"/><path class="cls-7" d="M134.69,16.41h0c-.66-2.24-4.79-2.64-13-1.27l-.66.11.36.56q.39.63.72,1.29l.14.29.33-.05c7.56-1.21,9.5-.44,9.83-.3-.18.35-1.09,1.62-5.72,3.94-.76.38-1.63.78-2.73,1.27a119.91,119.91,0,0,1-14.31,5.16,115.58,115.58,0,0,1-16,3.66c-.6.09-1.18.16-1.74.23-5,.56-6.51.05-6.91-.17.25-.42,1.49-1.94,7.22-4.6l.3-.14,0-.32a13.52,13.52,0,0,1-.11-1.48l0-.66-.61.27c-6.69,3.05-9.64,5.54-9,7.62.28,1,1.14,2,5.32,2a37,37,0,0,0,4.14-.27c.76-.09,1.56-.2,2.37-.32a120.73,120.73,0,0,0,15.81-3.65,124.22,124.22,0,0,0,14.08-5c1.26-.55,2.35-1.05,3.33-1.54C134.7,19.57,135,17.59,134.69,16.41Z"/><polygon class="cls-5" points="177.54 40.77 168.04 39.37 161.5 46.4 159.9 36.92 151.19 32.87 159.7 28.43 160.87 18.89 167.73 25.61 177.15 23.78 172.88 32.38 177.54 40.77"/><polygon class="cls-8" points="57.07 30.87 32.54 16.7 32.54 45.03 57.07 30.87"/><path class="cls-3" d="M165.07,72.7h21.19V65.62h0l15.76,13.79L186.3,93.19h0V86.12H165.07Z"/><polygon class="cls-5" points="40.79 168.22 34.58 160.89 25.03 161.85 30.08 153.68 26.22 144.89 35.55 147.17 42.72 140.78 43.43 150.36 51.72 155.2 42.83 158.84 40.79 168.22"/><polygon class="cls-8" points="195.93 165.67 192.59 137.53 169.9 154.49 195.93 165.67"/><path class="cls-5" d="M60.49,69.64l1-1.31,11.25-12.7h8.81L67.33,71.1l14.29,19H73L62.36,75.41l-1.68,1.68v13H53.79V55.63h6.89V67.91Z"/><path class="cls-5" d="M106.32,69.64V90.12h-5.95l-.47-3.28a8.15,8.15,0,0,1-3,3.12,8.89,8.89,0,0,1-4.57,1.15,6.62,6.62,0,0,1-4.69-1.74A5.86,5.86,0,0,1,85.7,85V69.64h6.56V82.53c.09,2,1,3,2.77,3a3.89,3.89,0,0,0,3.44-2.11A10.31,10.31,0,0,0,99.76,78V69.64Z"/><path class="cls-5" d="M132.16,70.39a5.83,5.83,0,0,1,2,4.41V90.12h-6.57V77.23c-.09-2-1.09-3-3-3a4.13,4.13,0,0,0-3.6,2.11,9.86,9.86,0,0,0-1.36,5.44v8.34h-6.56V69.64h6l.47,3.28a8,8,0,0,1,3.11-3.14,9.43,9.43,0,0,1,4.71-1.12A7,7,0,0,1,132.16,70.39Z"/><path class="cls-5" d="M141.86,60a3.72,3.72,0,0,1,2.51-1,3.57,3.57,0,0,1,2.44,1,3,3,0,0,1,1.07,2.37,3,3,0,0,1-1.07,2.34,3.6,3.6,0,0,1-2.44.94,3.75,3.75,0,0,1-2.51-.94,3,3,0,0,1-1.1-2.34A3,3,0,0,1,141.86,60Zm5.6,9.63V90.12H140.9V69.64Z"/><path class="cls-5" d="M85.39,102.55a6.16,6.16,0,0,1,1.9,4.45v15.37H80.77V109.72a5.74,5.74,0,0,0-.51-2.32,1.91,1.91,0,0,0-1.64-.87A4,4,0,0,0,75,108.76,10.24,10.24,0,0,0,73.74,114v8.38H67.18V109.72a5.21,5.21,0,0,0-.56-2.32,2.08,2.08,0,0,0-1.73-.87,3.87,3.87,0,0,0-3.47,2.23,10.14,10.14,0,0,0-1.27,5.13v8.48H53.59V101.9h5.95l.47,3.23a8.07,8.07,0,0,1,7.41-4.27,7.67,7.67,0,0,1,4.1,1,5.18,5.18,0,0,1,2.22,3,10.5,10.5,0,0,1,3.12-2.91,7.15,7.15,0,0,1,3.73-1.08A6.77,6.77,0,0,1,85.39,102.55Z"/><path class="cls-5" d="M116.06,101.9v20.47H109.5v-2.53a9.17,9.17,0,0,1-6.84,3.1,10.23,10.23,0,0,1-7.38-2.72q-2.84-2.72-2.84-8.06a12.28,12.28,0,0,1,1.38-5.93,10.28,10.28,0,0,1,3.68-4,9.24,9.24,0,0,1,4.92-1.41,9.58,9.58,0,0,1,4.31.82,8.73,8.73,0,0,1,2.81,2.32l.43-2.1Zm-6.56,12.6v-5a4.81,4.81,0,0,0-2-2.39,5.8,5.8,0,0,0-3.25-.89,4.9,4.9,0,0,0-3.68,1.59,5.59,5.59,0,0,0-1.53,4,5.9,5.9,0,0,0,.76,2.93,5.46,5.46,0,0,0,2,2.08,5.08,5.08,0,0,0,2.69.75A5.19,5.19,0,0,0,109.5,114.5Z"/><path class="cls-5" d="M124.73,121.91a10,10,0,0,1-3.66-2.49l2.72-3.61c1.81,1.69,3.52,2.53,5.11,2.53a4.58,4.58,0,0,0,2-.39,1.3,1.3,0,0,0,.77-1.2,1.57,1.57,0,0,0-.89-1.43,10,10,0,0,0-2-.82c-.74-.22-1.23-.36-1.48-.42a7.9,7.9,0,0,1-4-2.51,6,6,0,0,1-1.31-3.82,6.55,6.55,0,0,1,.86-3.21,6.65,6.65,0,0,1,2.7-2.57,9.21,9.21,0,0,1,4.54-1,15.77,15.77,0,0,1,4.31.51,11.53,11.53,0,0,1,3.43,1.69L135.41,107a9,9,0,0,0-2.08-1.24,5.33,5.33,0,0,0-2.09-.49,3.27,3.27,0,0,0-1.83.47,1.36,1.36,0,0,0-.7,1.12,1.51,1.51,0,0,0,.82,1.48,13.18,13.18,0,0,0,2.7,1l.58.18.63.19q4.83,1.59,4.83,5.81a6.94,6.94,0,0,1-1,3.61,7.11,7.11,0,0,1-3,2.65,10.67,10.67,0,0,1-4.85,1A12.56,12.56,0,0,1,124.73,121.91Z"/><path class="cls-5" d="M164.37,101.9v20.47h-6l-.47-3.28a8,8,0,0,1-3,3.12,8.79,8.79,0,0,1-4.57,1.15,6.64,6.64,0,0,1-4.69-1.74,5.86,5.86,0,0,1-1.92-4.4V101.9h6.56v12.88c.1,2,1,3,2.77,3a3.89,3.89,0,0,0,3.44-2.11,10.27,10.27,0,0,0,1.29-5.43V101.9Z"/><circle class="cls-9" cx="8.26" cy="59.96" r="3.45"/><circle class="cls-9" cx="144.83" cy="5.01" r="3.45"/><circle class="cls-9" cx="4.82" cy="134.6" r="3.45"/><circle class="cls-9" cx="202.06" cy="125.76" r="3.45"/></g></svg>